# xmcd
#
# Track frame offsets:
#	150
#	15327
#	36212
#	49445
#	66585
#	81895
#	105022
#	131407
#	145117
#	164250
#	171327
#	181842
#	189240
#	196960
#	206627
#
# Disc length: 2913 seconds
#
# Revision: 10
# Processed by: cddbd v1.5.2PL0 Copyright (c) Steve Scherf et al.
# Submitted via: EZCDAudioConverter 2.1.7.1
#
DISCID=c80b5f0f
DTITLE=Beach Boys - Holland
DYEAR=1973
DGENRE=
TTITLE0=Sail On, Sailor
TTITLE1=Steamboat
TTITLE2=California Saga - Big Sur
TTITLE3=California Saga - The Beaks Of Eagles
TTITLE4=California Saga - California
TTITLE5=The Trader
TTITLE6=Leaving This Town
TTITLE7=Only With You
TTITLE8=Funky Pretty
TTITLE9=Mt. Vernon And Fairway (Theme)
TTITLE10=I'm The Pied Piper [Instrumental]
TTITLE11=Better Get Back In Bed
TTITLE12=Magic Transistor Radio
TTITLE13=I'm The Pied Piper
TTITLE14=Radio King Dom
EXTD=
EXTT0=
EXTT1=
EXTT2=
EXTT3=
EXTT4=
EXTT5=
EXTT6=
EXTT7=
EXTT8=
EXTT9=
EXTT10=
EXTT11=
EXTT12=
EXTT13=
EXTT14=
PLAYORDER=
